Coordinates
version=1
nRows=8
nColumns=36
inDegrees=yes

Units are S.I. units (second, meters, Newtons, ...)
If the header above contains a line with 'inDegrees', this indicates whether rotational values are in degrees (yes) or radians (no).

endheader
time	pelvis_tilt	pelvis_list	pelvis_rotation	pelvis_tx	pelvis_ty	pelvis_tz	hip_flexion_r	hip_adduction_r	hip_rotation_r	knee_angle_r	knee_angle_r_beta	ankle_angle_r	subtalar_angle_r	mtp_angle_r	hip_flexion_l	hip_adduction_l	hip_rotation_l	knee_angle_l	knee_angle_l_beta	ankle_angle_l	subtalar_angle_l	mtp_angle_l	lumbar_extension	lumbar_bending	lumbar_rotation	arm_flex_r	arm_add_r	arm_rot_r	elbow_flex_r	pro_sup_r	arm_flex_l	arm_add_l	arm_rot_l	elbow_flex_l	pro_sup_l
      1.85416670	      3.15471500	     -1.68651733	      1.40712333	     -0.93703525	      1.26170597	     -0.07426968	     -6.19934016	      2.95152909	     -3.45821312	      1.34675198	      0.02350526	      9.12626571	     -0.25483928	     -7.49999987	     -5.28335849	     -1.72632895	      5.28825369	      3.41650856	      0.05962932	     10.19350977	     -4.85566676	     -7.49999987	    -22.22568394	     -0.38015849	      1.93785827	     17.27638996	     -5.21901242	     -0.31924958	     31.97127488	     76.58830458	     16.95620088	     -6.14371533	      4.55186852	     32.03593136	     74.09830034
      1.85833330	      3.20164601	     -1.75648241	      1.34777032	     -0.93080611	      1.25373548	     -0.06973751	     -6.23212823	      3.06952973	     -3.37244523	      1.59006685	      0.02775190	      9.37357396	     -0.19972900	     -7.49999987	     -5.34289260	     -1.85189185	      5.38653573	      3.68247634	      0.06427134	     10.40372221	     -5.24524039	     -7.49999987	    -22.01074018	     -0.42255718	      1.92915241	     16.67716034	     -5.28878331	      0.02324401	     32.06456226	     75.01343577	     16.38997546	     -6.42862926	      4.62831844	     32.31098533	     72.68573311
      1.86250000	      3.13208492	     -1.82492351	      1.19633643	     -0.93000359	      1.26321643	     -0.06971375	     -6.13244654	      3.16571616	     -3.17153156	      1.88819873	      0.03295528	      9.45002289	     -0.47963255	     -7.49999987	     -5.29411799	     -2.00202428	      5.35933084	      3.88448368	      0.06779703	     10.54442904	     -5.44093761	     -7.49999987	    -21.67086597	     -0.44089578	      1.99458433	     16.18509722	     -5.32657725	     -0.04091496	     31.70820914	     75.42014920	     15.94407058	     -6.58069126	      4.36620829	     32.22657020	     72.89253099
      1.86666670	      3.09466800	     -1.89173882	      1.20715997	     -0.93025879	      1.25883853	     -0.06994022	     -6.14041633	      3.29766810	     -3.12459180	      2.01945222	      0.03524609	      9.64133850	     -0.48350470	     -7.49999987	     -5.22942825	     -2.16409388	      5.36165303	      4.13858498	      0.07223193	     10.84682594	     -5.43500935	     -7.49999987	    -21.34030658	     -0.43808782	      1.98789197	     15.66073786	     -5.39507785	     -0.05076242	     31.69384702	     75.55494190	     15.47562606	     -6.84042204	      4.16826924	     32.29531690	     72.94370362
      1.87083330	      3.09758361	     -1.91299097	      1.12045323	     -0.93638542	      1.25630512	     -0.07444575	     -6.03149235	      3.25266804	     -3.18267791	      2.26342686	      0.03950425	      9.77844438	     -0.59592979	     -7.49999987	     -5.14471637	     -2.16888694	      5.29248300	      4.23666132	      0.07394369	     10.95551814	     -5.52118986	     -7.49999987	    -21.34844266	     -0.41418917	      2.00467822	     15.60662364	     -5.60135837	     -0.08864256	     31.67713131	     75.55636551	     15.29058781	     -6.91652717	      4.15313598	     32.23204625	     72.94487569
      1.87500000	      2.42377775	     -1.93945846	      1.02796708	     -0.93677587	      1.25534829	     -0.07471009	     -5.03055156	      3.22590079	     -2.69962589	      2.63241349	      0.04594428	      9.98626488	     -1.32079693	     -7.49999987	     -4.16297277	     -2.11938600	      5.41022326	      4.65194625	      0.08119178	     11.12978993	     -6.06028541	     -7.49999987	    -20.40114708	     -0.36484347	      2.05499965	     15.11710601	     -5.57369876	     -0.31802176	     31.37092847	     77.99798838	     14.91634837	     -6.85906155	      3.62806213	     31.66461673	     74.72205571
      1.87916670	      1.95178464	     -1.93952114	      1.11192805	     -0.93648751	      1.25259398	     -0.07497556	     -4.27480682	      3.16529418	     -2.56733973	      2.96660298	      0.05177699	     10.17923781	     -1.73335973	     -7.49999987	     -3.40431417	     -2.04207961	      5.60398358	      5.00763401	      0.08739970	     11.26964436	     -6.37891934	     -7.49999987	    -19.86723777	     -0.27954352	      1.94862899	     14.85301453	     -5.67186903	     -0.21696657	     31.49855664	     76.34934620	     14.61262073	     -6.90635134	      3.45776058	     31.38102170	     73.23017043
      1.88333330	      1.85983249	     -1.94782327	      1.14732519	     -0.92948674	      1.26448505	     -0.07063750	     -4.16513478	      3.20102449	     -2.37436624	      3.04257571	      0.05310296	     10.30173994	     -1.66197827	     -7.49999987	     -3.25628680	     -2.08135152	      5.83089252	      5.17055658	      0.09024324	     11.09727442	     -6.81899698	     -7.49999987	    -19.61609862	     -0.26267757	      1.92432739	     14.32878268	     -5.55827982	      0.57068138	     30.97567720	     76.94805196	     14.10589006	     -7.02567204	      3.47895178	     30.79374395	     73.38844142
